<svg width="10" height="17" viewBox="0 0 10 17" fill="none" xmlns="http://www.w3.org/2000/svg">
<path d="M1.04389 15.3336L7.93822 8.43931L1.04389 1.54498C1.00727 1.50837 0.975243 1.46891 0.947783 1.42732C0.883933 1.33062 0.844834 1.22239 0.830474 1.11156C0.826304 1.0794 0.824223 1.04702 0.824223 1.01465C0.824223 0.845667 0.880963 0.676697 0.994463 0.538757C1.00989 0.520017 1.02636 0.501838 1.04389 0.484318C1.05761 0.470588 1.07174 0.457497 1.08624 0.445057C1.3809 0.192067 1.82538 0.205158 2.10455 0.484318L9.52912 7.90891C9.66982 8.04961 9.74882 8.24041 9.74882 8.43931C9.74882 8.63821 9.66982 8.82891 9.52912 8.96961L2.10455 16.3942C2.06793 16.4308 2.02848 16.4629 1.98689 16.4903C1.69578 16.6825 1.30017 16.6505 1.04389 16.3942C1.00727 16.3576 0.975243 16.3181 0.947783 16.2766C0.755573 15.9854 0.787604 15.5898 1.04389 15.3336Z" fill="white"/>
</svg>
