<svg width="19" height="12" viewBox="0 0 19 12" fill="none" xmlns="http://www.w3.org/2000/svg">
<path d="M0.945312 1.25C0.945312 0.83578 1.2811 0.5 1.69531 0.5H18.1953C18.6095 0.5 18.9453 0.83578 18.9453 1.25C18.9453 1.66421 18.6095 2 18.1953 2H1.69531C1.2811 2 0.945312 1.66421 0.945312 1.25Z" fill="black"/>
<path d="M3.94531 5.99994C3.94531 5.58574 4.2811 5.24994 4.69531 5.24994H15.1953C15.6095 5.24994 15.9453 5.58574 15.9453 5.99994C15.9453 6.41414 15.6095 6.74994 15.1953 6.74994H4.69531C4.2811 6.74994 3.94531 6.41414 3.94531 5.99994Z" fill="black"/>
<path d="M7.69531 10.0001C7.2811 10.0001 6.94531 10.3358 6.94531 10.7501C6.94531 11.1643 7.2811 11.5001 7.69531 11.5001H12.1953C12.6095 11.5001 12.9453 11.1643 12.9453 10.7501C12.9453 10.3358 12.6095 10.0001 12.1953 10.0001H7.69531Z" fill="black"/>
</svg>
