<svg width="24" height="13" viewBox="0 0 24 13" fill="none" xmlns="http://www.w3.org/2000/svg">
<path d="M16.4996 2.06158C16.7925 1.76869 16.7925 1.29381 16.4996 1.00092C16.2067 0.708027 15.7318 0.708027 15.4389 1.00092L5.99629 10.4436L2.06022 6.55623C1.76551 6.26516 1.29064 6.26812 0.999579 6.56284C0.708517 6.85755 0.711475 7.33241 1.00619 7.62348L5.47256 12.0345C5.76598 12.3243 6.23831 12.3229 6.52991 12.0313L16.4996 2.06158Z" fill="#1C133B"/>
<path d="M11.9759 12.0379L10.4684 10.5676L11.5291 9.5069L12.493 10.4469L21.9389 1.00092C22.2318 0.708029 22.7067 0.708029 22.9996 1.00092C23.2925 1.29382 23.2925 1.76869 22.9996 2.06158L13.0299 12.0313C12.7396 12.3216 12.2698 12.3245 11.9759 12.0379Z" fill="#1C133B"/>
</svg>
