<svg width="30" height="30" viewBox="0 0 30 30" fill="none" xmlns="http://www.w3.org/2000/svg">
<path d="M11.8958 16.0618L14.9976 19.1635C15.4126 19.5784 15.4126 20.2512 14.9976 20.6661C14.5827 21.081 13.9099 21.081 13.4949 20.6661L8.5794 15.7506C8.16446 15.3356 8.16446 14.6629 8.5794 14.2479L13.4947 9.33279C13.9096 8.91785 14.5822 8.91785 14.9972 9.33279C15.4121 9.74774 15.4121 10.4204 14.9972 10.8353L11.8958 13.9368H21.0182C21.605 13.9368 22.0807 14.4124 22.0807 14.9993C22.0807 15.5861 21.605 16.0618 21.0182 16.0618H11.8958Z" fill="black"/>
<path fill-rule="evenodd" clip-rule="evenodd" d="M0.830658 14.9993C0.830658 7.17536 7.17336 0.832653 14.9973 0.832653C22.8214 0.832653 29.1641 7.17536 29.1641 14.9993C29.1641 22.8234 22.8214 29.166 14.9973 29.166C7.17336 29.166 0.830658 22.8234 0.830658 14.9993ZM14.9973 27.041C8.34693 27.041 2.95566 21.6498 2.95566 14.9993C2.95566 8.34892 8.34693 2.95765 14.9973 2.95765C21.6478 2.95765 27.0391 8.34892 27.0391 14.9993C27.0391 21.6498 21.6478 27.041 14.9973 27.041Z" fill="black"/>
</svg>
