<svg width="30" height="30" viewBox="0 0 30 30" fill="none" xmlns="http://www.w3.org/2000/svg">
<path d="M18.1042 13.9382L15.0024 10.8365C14.5874 10.4216 14.5874 9.74883 15.0024 9.3339C15.4173 8.91897 16.0901 8.91897 16.5051 9.3339L21.4206 14.2494C21.8355 14.6644 21.8355 15.3371 21.4206 15.7521L16.5053 20.6672C16.0904 21.0821 15.4178 21.0821 15.0028 20.6672C14.5879 20.2523 14.5879 19.5796 15.0028 19.1647L18.1042 16.0632H8.98177C8.39497 16.0632 7.91927 15.5876 7.91927 15.0007C7.91927 14.4139 8.39497 13.9382 8.98177 13.9382H18.1042Z" fill="black"/>
<path fill-rule="evenodd" clip-rule="evenodd" d="M29.1693 15.0007C29.1693 22.8246 22.8266 29.1673 15.0027 29.1673C7.17858 29.1673 0.835938 22.8246 0.835938 15.0007C0.835938 7.17661 7.17858 0.833984 15.0027 0.833984C22.8266 0.833984 29.1693 7.17661 29.1693 15.0007ZM15.0027 2.95898C21.6531 2.95898 27.0443 8.35022 27.0443 15.0007C27.0443 21.6511 21.6531 27.0423 15.0027 27.0423C8.35218 27.0423 2.96094 21.6511 2.96094 15.0007C2.96094 8.35022 8.35218 2.95898 15.0027 2.95898Z" fill="black"/>
</svg>
