<svg width="14" height="12" viewBox="0 0 14 12" fill="none" xmlns="http://www.w3.org/2000/svg">
<path fill-rule="evenodd" clip-rule="evenodd" d="M0.333984 2.00033C0.333984 1.26395 0.930938 0.666992 1.66732 0.666992H12.334C13.0704 0.666992 13.6673 1.26395 13.6673 2.00033V10.0003C13.6673 10.7367 13.0704 11.3337 12.334 11.3337H1.66732C0.930938 11.3337 0.333984 10.7367 0.333984 10.0003V2.00033ZM1.33398 2.00033C1.33398 1.81623 1.48322 1.66699 1.66732 1.66699H12.334C12.5181 1.66699 12.6673 1.81623 12.6673 2.00033V2.57783L7.00065 5.85033L1.33398 2.57783V2.00033ZM7.50072 6.71633L12.6673 3.7326V10.0003C12.6673 10.1844 12.5181 10.3337 12.334 10.3337H1.66732C1.48322 10.3337 1.33398 10.1844 1.33398 10.0003V3.7326L6.50058 6.71633C6.80998 6.89499 7.19132 6.89499 7.50072 6.71633Z" fill="black"/>
</svg>
