<svg width="18" height="23" viewBox="0 0 18 23" fill="none" xmlns="http://www.w3.org/2000/svg">
<path fill-rule="evenodd" clip-rule="evenodd" d="M9 13C11.2091 13 13 11.2091 13 9C13 6.79086 11.2091 5 9 5C6.79086 5 5 6.79086 5 9C5 11.2091 6.79086 13 9 13ZM9 11.5C10.3807 11.5 11.5 10.3807 11.5 9C11.5 7.61929 10.3807 6.5 9 6.5C7.6193 6.5 6.5 7.61929 6.5 9C6.5 10.3807 7.6193 11.5 9 11.5Z" fill="#1C133B"/>
<path fill-rule="evenodd" clip-rule="evenodd" d="M18 9C18 13.963 12.7052 19.549 10.238 21.8825C9.5344 22.5479 8.4656 22.5479 7.762 21.8825C5.29483 19.549 0 13.963 0 9C0 4.02944 4.02944 0 9 0C13.9706 0 18 4.02944 18 9ZM16.5 9C16.5 11.003 15.4035 13.3207 13.8194 15.5614C12.2676 17.7563 10.4056 19.6593 9.2072 20.7927C9.1369 20.8592 9.0638 20.8816 9 20.8816C8.9363 20.8816 8.8631 20.8592 8.7928 20.7927C7.5944 19.6593 5.73237 17.7563 4.18064 15.5614C2.59649 13.3207 1.5 11.003 1.5 9C1.5 4.85787 4.85787 1.5 9 1.5C13.1421 1.5 16.5 4.85787 16.5 9Z" fill="#1C133B"/>
</svg>
