<svg width="21" height="13" viewBox="0 0 21 13" fill="none" xmlns="http://www.w3.org/2000/svg">
<path d="M13.4996 2.06158C13.7925 1.76869 13.7925 1.29381 13.4996 1.00092C13.2067 0.708027 12.7318 0.708027 12.4389 1.00092L2.99629 10.4436L-0.939781 6.55623C-1.23449 6.26516 -1.70936 6.26812 -2.00042 6.56284C-2.29148 6.85755 -2.28852 7.33241 -1.99381 7.62348L2.47256 12.0345C2.76598 12.3243 3.23831 12.3229 3.52991 12.0313L13.4996 2.06158Z" fill="#6E4AEC"/>
<path d="M8.97593 12.0379L7.46838 10.5676L8.52913 9.5069L9.49296 10.4469L18.9389 1.00092C19.2318 0.708029 19.7067 0.708029 19.9996 1.00092C20.2925 1.29382 20.2925 1.76869 19.9996 2.06158L10.0299 12.0313C9.7396 12.3216 9.26985 12.3245 8.97593 12.0379Z" fill="#6E4AEC"/>
</svg>
