<svg width="21" height="21" viewBox="0 0 21 21" fill="none" xmlns="http://www.w3.org/2000/svg">
<path fill-rule="evenodd" clip-rule="evenodd" d="M8.502 0.25C3.9456 0.25 0.251953 3.94365 0.251953 8.50004C0.251953 13.0563 3.9456 16.75 8.502 16.75C10.5098 16.75 12.351 16.0319 13.7812 14.8399L18.9413 20C19.2342 20.2929 19.7091 20.2929 20.002 20C20.2948 19.7071 20.2948 19.2322 20.002 18.9393L14.8419 13.7792C16.0339 12.349 16.752 10.5078 16.752 8.50004C16.752 3.94365 13.0583 0.25 8.502 0.25ZM1.75195 8.50004C1.75195 4.77207 4.77403 1.75 8.502 1.75C12.2299 1.75 15.252 4.77207 15.252 8.50004C15.252 10.3641 14.4973 12.0506 13.2749 13.2729C12.0526 14.4953 10.3661 15.25 8.502 15.25C4.77403 15.25 1.75195 12.2279 1.75195 8.50004Z" fill="#1C133B"/>
</svg>
