<svg width="18" height="16" viewBox="0 0 18 16" fill="%23d4d7de" xmlns="http://www.w3.org/2000/svg">
<path fill-rule="evenodd" clip-rule="evenodd" d="M8.02994 0.573876C8.29837 -0.0715002 9.21258 -0.0715002 9.48101 0.573876L11.3743 5.12602L16.2888 5.52C16.9855 5.57586 17.268 6.44536 16.7372 6.90012L12.9929 10.1075L14.1368 14.9031C14.299 15.583 13.5594 16.1204 12.9629 15.756L8.75548 13.1861L4.54805 15.756C3.95155 16.1204 3.21191 15.583 3.37409 14.9031L4.51802 10.1075L0.773757 6.90012C0.242913 6.44536 0.525426 5.57586 1.22217 5.52L6.13659 5.12602L8.02994 0.573876ZM10.2861 5.57867C10.4558 5.98679 10.8396 6.26563 11.2802 6.30096L15.2529 6.61943L12.2262 9.21228C11.8905 9.49981 11.7438 9.95102 11.8464 10.3809L12.7711 14.2577L9.3699 12.1802C8.99271 11.9498 8.51824 11.9498 8.14105 12.1802L4.73981 14.2577L5.66456 10.3809C5.76712 9.95102 5.62052 9.49981 5.28483 9.21228L2.258 6.61943L6.23078 6.30096C6.67137 6.26563 7.05517 5.98679 7.22488 5.57867L8.75548 1.89875L10.2861 5.57867Z" fill="white"/>
</svg>
