<svg width="18" height="18" viewBox="0 0 18 18" fill="none" xmlns="http://www.w3.org/2000/svg">
<path d="M17.2838 8.39566C17.2838 3.94516 13.9103 0.847656 9.0608 0.847656C4.0358 0.847656 0.591797 4.32466 0.591797 9.40066C0.591797 14.6402 3.9443 17.9627 9.2348 17.9627C10.5278 17.9627 11.7683 17.7782 12.6908 17.4602V16.1672C12.0458 16.4657 10.6598 16.6592 9.2558 16.6592C4.8668 16.6592 2.0363 13.8392 2.0363 9.46216C2.0363 5.19616 4.9178 2.14066 8.9273 2.14066C13.0298 2.14066 15.8393 4.67266 15.8393 8.37466C15.8393 10.8977 15.0083 12.5282 13.7153 12.5282C12.9773 12.5282 12.5573 12.1082 12.5573 11.3882V5.37166H11.0093V6.62266H10.8443C10.4453 5.73016 9.5228 5.17666 8.4443 5.17666C6.3443 5.17666 4.8773 6.91966 4.8773 9.41116C4.8773 12.0167 6.3128 13.7702 8.4458 13.7702C9.6458 13.7702 10.5683 13.1852 11.0093 12.1397H11.1743C11.2958 13.1447 12.2288 13.8617 13.4288 13.8617C15.7868 13.8617 17.2838 11.7392 17.2838 8.39716V8.39566ZM6.5183 9.45166C6.5183 7.65616 7.3283 6.59116 8.7023 6.59116C10.0973 6.59116 10.9883 7.69816 10.9883 9.45166C10.9883 11.2052 10.0868 12.3227 8.6813 12.3227C7.3388 12.3227 6.5183 11.2352 6.5183 9.45166Z" fill="#307771"/>
</svg>
