<svg width="17" height="17" viewBox="0 0 17 17" fill="none" xmlns="http://www.w3.org/2000/svg">
<path fill-rule="evenodd" clip-rule="evenodd" d="M7.84439 1.32388C8.11283 0.6785 9.02703 0.6785 9.29547 1.32388L11.1888 5.87602L16.1032 6.27C16.8 6.32586 17.0825 7.19536 16.5517 7.65012L12.8074 10.8575L13.9513 15.6531C14.1135 16.333 13.3739 16.8704 12.7774 16.506L8.56993 13.9361L4.36251 16.506C3.766 16.8704 3.02636 16.333 3.18854 15.6531L4.33247 10.8575L0.58821 7.65012C0.0573661 7.19536 0.33988 6.32586 1.03662 6.27L5.95104 5.87602L7.84439 1.32388ZM10.1005 6.32867C10.2703 6.73679 10.654 7.01563 11.0947 7.05096L15.0674 7.36943L12.0406 9.96228C11.7049 10.2498 11.5583 10.701 11.6608 11.1309L12.5856 15.0077L9.18435 12.9302C8.80717 12.6998 8.3327 12.6998 7.95551 12.9302L4.55427 15.0077L5.47901 11.1309C5.58158 10.701 5.43498 10.2498 5.09929 9.96228L2.07245 7.36943L6.04523 7.05096C6.48582 7.01563 6.86962 6.73679 7.03933 6.32867L8.56993 2.64875L10.1005 6.32867Z" fill="#47B2A9"/>
</svg>
