<svg width="22" height="22" viewBox="0 0 22 22" fill="none" xmlns="http://www.w3.org/2000/svg">
<g clip-path="url(#clip0_1_6227)">
<path fill-rule="evenodd" clip-rule="evenodd" d="M11.3125 12.7188C13.28 12.7188 14.875 11.1237 14.875 9.15625C14.875 7.18874 13.28 5.59375 11.3125 5.59375C9.34498 5.59375 7.75 7.18874 7.75 9.15625C7.75 11.1237 9.34498 12.7188 11.3125 12.7188ZM11.3125 11.3828C12.5422 11.3828 13.5391 10.3859 13.5391 9.15625C13.5391 7.92656 12.5422 6.92969 11.3125 6.92969C10.0828 6.92969 9.08594 7.92656 9.08594 9.15625C9.08594 10.3859 10.0828 11.3828 11.3125 11.3828Z" fill="#307771"/>
<path fill-rule="evenodd" clip-rule="evenodd" d="M19.3281 9.15625C19.3281 13.5764 14.6124 18.5515 12.4151 20.6297C11.7885 21.2223 10.8366 21.2223 10.2099 20.6297C8.01258 18.5515 3.29688 13.5764 3.29688 9.15625C3.29688 4.72935 6.88559 1.14062 11.3125 1.14062C15.7394 1.14062 19.3281 4.72935 19.3281 9.15625ZM17.9922 9.15625C17.9922 10.9402 17.0156 13.0044 15.6048 15C14.2227 16.9548 12.5644 18.6497 11.497 19.6591C11.4344 19.7184 11.3693 19.7383 11.3125 19.7383C11.2558 19.7383 11.1906 19.7184 11.128 19.6591C10.0606 18.6497 8.40227 16.9548 7.02026 15C5.60937 13.0044 4.63281 10.9402 4.63281 9.15625C4.63281 5.46717 7.62342 2.47656 11.3125 2.47656C15.0016 2.47656 17.9922 5.46717 17.9922 9.15625Z" fill="#307771"/>
</g>
<defs>
<clipPath id="clip0_1_6227">
<rect width="21.375" height="21.375" fill="white" transform="translate(0.625 0.25)"/>
</clipPath>
</defs>
</svg>
