<svg width="159" height="142" viewBox="0 0 159 142" fill="none" xmlns="http://www.w3.org/2000/svg">
<g clip-path="url(#clip0_1_6090)">
<path d="M143.331 88.3567C143.09 107.142 136.6 125.311 124.884 139.997L-9.55671 138.06C-20.844 123.043 -26.8084 104.694 -26.5084 85.91C-25.8327 39.0097 12.7362 1.53992 59.6368 2.21556C106.537 2.8912 144.007 41.4564 143.331 88.3567Z" fill="white"/>
<path opacity="0.1" d="M143.331 88.3567C143.09 107.142 136.6 125.311 124.884 139.997L-9.55671 138.06C-20.844 123.043 -26.8084 104.694 -26.5084 85.91C-25.8327 39.0097 12.7362 1.53992 59.6368 2.21556C106.537 2.8912 144.007 41.4564 143.331 88.3567Z" fill="#367CFF"/>
<path d="M145.88 4.54526L78.5095 3.57472C71.9383 3.48006 66.5346 8.73031 66.4399 15.3015L66.4399 15.3018C66.3453 21.8729 71.5955 27.2767 78.1667 27.3713L145.538 28.3419C152.109 28.4365 157.513 23.1863 157.607 16.6151L157.607 16.6148C157.702 10.0437 152.452 4.63992 145.88 4.54526Z" fill="white"/>
<path d="M145.533 28.576L78.1624 27.6055C74.9545 27.5442 71.9015 26.215 69.6711 23.9086C67.4407 21.6023 66.2145 18.5064 66.2608 15.2983C66.307 12.0902 67.6218 9.03102 69.9177 6.78985C72.2136 4.54867 75.3037 3.30797 78.5119 3.33914L145.883 4.30968C147.481 4.32521 149.061 4.65632 150.531 5.28401C152 5.91171 153.332 6.8236 154.448 7.96733C155.565 9.11107 156.444 10.4641 157.036 11.9487C157.628 13.4333 157.921 15.0203 157.898 16.6184C157.875 18.2166 157.537 19.7945 156.902 21.2614C156.268 22.7284 155.349 24.0555 154.201 25.1666C153.052 26.2777 151.694 27.1509 150.207 27.7359C148.72 28.321 147.131 28.6065 145.533 28.576ZM78.5052 3.80887C75.4119 3.76431 72.4277 4.95035 70.2089 7.10609C67.9902 9.26182 66.7187 12.2107 66.6741 15.3039C66.6296 18.3971 67.8156 21.3814 69.9713 23.6001C72.1271 25.8189 75.0759 27.0904 78.1691 27.1349L145.54 28.1055C148.633 28.15 151.618 26.964 153.836 24.8083C156.055 22.6525 157.327 19.7037 157.371 16.6105C157.416 13.5172 156.23 10.533 154.074 8.31423C151.918 6.09548 148.969 4.82396 145.876 4.7794L78.5052 3.80887Z" fill="#262626"/>
<path d="M78.9743 9.22863L80.9225 13.2256L85.3132 13.9666L82.1215 16.9622L82.8539 21.3208L78.9327 19.1752L74.9947 21.1277L75.7632 16.806L72.597 13.6545L76.9929 13.1292L78.9743 9.22863Z" fill="#0CBC8B"/>
<path d="M95.3141 9.46398L97.2624 13.461L101.653 14.202L98.4613 17.1976L99.1938 21.5561L95.2726 19.4105L91.3345 21.3631L92.1031 17.0414L88.9369 13.8899L93.333 13.3646L95.3141 9.46398Z" fill="#0CBC8B"/>
<path d="M111.655 9.69933L113.603 13.6963L117.994 14.4373L114.802 17.4329L115.535 21.7915L111.614 19.6459L107.676 21.5984L108.444 17.2767L105.278 14.1252L109.674 13.5999L111.655 9.69933Z" fill="#0CBC8B"/>
<path d="M127.995 9.93468L129.943 13.9317L134.334 14.6727L131.142 17.6683L131.874 22.0268L127.953 19.8812L124.015 21.8338L124.784 17.5121L121.618 14.3606L126.014 13.8353L127.995 9.93468Z" fill="#0CBC8B"/>
<path opacity="0.2" d="M144.336 10.17L146.284 14.167L150.675 14.908L147.483 17.9036L148.215 22.2622L144.294 20.1166L140.356 22.0691L141.125 17.7474L137.958 14.5959L142.354 14.0706L144.336 10.17Z" fill="#367CFF"/>
<path d="M22.9247 29.8069C22.9247 29.8069 22.0758 38.3828 20.042 41.4388C14.1869 50.2365 12.2497 60.283 17.6546 65.738C23.0596 71.1929 58.6119 72.4082 61.6954 60.36C64.2915 50.2167 59.4603 48.9619 58.5473 40.4959C58.134 36.6655 56.9173 28.622 56.9173 28.622" fill="#0A0A0A"/>
<path d="M52.8668 58.1621C52.8052 58.1532 51.961 69.4488 38.8416 68.274C29.7591 67.4619 26.6561 57.7677 26.4466 57.7647C27.4299 57.5704 29.0853 57.2913 29.5239 57.0653C30.9668 56.3165 32.7492 55.5416 33.2512 52.7679C33.5412 51.1704 33.2072 42.9645 33.3696 41.3444L47.2814 44.6605C47.037 48.0819 45.5577 56.0008 50.3215 57.4747C51.115 57.7202 51.9695 57.9461 52.8668 58.1621Z" fill="#E98862"/>
<path opacity="0.5" d="M47.3412 54.1879C47.1327 53.4802 47.0024 52.7518 46.9525 52.0158C46.8232 50.3358 46.8782 48.6468 47.1164 46.9788C44.2854 46.555 41.6301 45.3457 39.452 43.4883C39.1791 44.4416 37.6936 48.6033 38.0753 49.5185C38.7957 51.2475 42.2596 54.1147 47.3412 54.1879Z" fill="#0C0C0C"/>
<path d="M45.4043 50.6365C39.8868 50.9919 32.8408 48.5629 31.6021 41.1907L30.4842 34.5389C29.2455 27.1668 32.1132 20.5398 39.0545 19.3735C45.9958 18.2071 52.1883 23.3114 53.4272 30.6835L53.9219 33.6286C54.3974 36.4573 55.2484 50.0023 45.4043 50.6365Z" fill="#E98862"/>
<path d="M47.8002 40.4998L47.8138 40.4979C48.095 40.4485 48.3733 40.3838 48.6474 40.3038C49.0568 40.1813 49.5936 39.976 49.5319 39.6073C49.4614 39.1871 47.549 34.8484 47.3314 34.3549C47.3113 34.3134 47.2759 34.2813 47.2327 34.2654C47.1894 34.2495 47.1417 34.251 47.0995 34.2696C47.0573 34.2882 47.0241 34.3225 47.0067 34.3652C46.9893 34.4079 46.9891 34.4556 47.0063 34.4984C47.8219 36.3462 49.1339 39.3834 49.1814 39.6663C49.1331 39.7958 48.453 40.0295 47.7551 40.1476C47.7102 40.1556 47.6701 40.1806 47.6431 40.2174C47.6161 40.2542 47.6043 40.2999 47.6101 40.3451C47.6159 40.3904 47.6389 40.4317 47.6742 40.4605C47.7096 40.4893 47.7547 40.5033 47.8002 40.4998Z" fill="#0C0C0C"/>
<path d="M46.7114 43.6483C47.8422 43.525 48.9283 43.1377 49.8819 42.5176C49.9219 42.4927 49.9503 42.453 49.961 42.4071C49.9717 42.3613 49.9637 42.313 49.9388 42.2731C49.9139 42.2331 49.8742 42.2047 49.8284 42.194C49.7825 42.1833 49.7343 42.1913 49.6943 42.2162C47.6316 43.5004 45.6046 43.6735 43.8325 42.7163C43.7967 42.6959 43.7598 42.6776 43.722 42.6614C43.678 42.6445 43.6291 42.6457 43.5861 42.6649C43.5431 42.6841 43.5094 42.7195 43.4925 42.7635C43.4757 42.8075 43.4769 42.8563 43.4961 42.8994C43.5152 42.9424 43.5507 42.976 43.5947 42.9929C43.6085 42.999 43.6318 43.0119 43.6638 43.0294C44.5955 43.5343 45.6566 43.7498 46.7114 43.6483Z" fill="#0C0C0C"/>
<path d="M24.9047 36.7344L31.1262 35.7253C35.8595 33.9225 37.4462 25.8254 37.4462 25.8254C37.4462 25.8254 43.0338 31.4997 56.9166 28.6232C56.9166 28.6232 54.5421 9.29616 34.0131 14.4797C27.3937 16.151 22.5332 22.687 22.9395 31.5648C23.2241 37.7852 24.9047 36.7344 24.9047 36.7344Z" fill="#0A0A0A"/>
<path d="M32.4103 43.3638C30.3009 43.7184 28.2116 41.7489 27.857 39.6395C27.5025 37.5301 29.0172 36.0792 31.1266 35.7249L32.4511 36.9556L34.2238 43.0589L32.4103 43.3638Z" fill="#E98862"/>
<path d="M48.9271 30.9947C49.463 30.6409 50.0831 30.4354 50.7242 30.3989C51.0465 30.3784 51.3701 30.4067 51.684 30.4826C52.0006 30.5579 52.3066 30.6726 52.5947 30.8241L52.6037 30.8285C52.6356 30.8435 52.6721 30.8454 52.7054 30.834C52.7388 30.8225 52.7664 30.7986 52.7824 30.7672C52.7984 30.7358 52.8016 30.6994 52.7912 30.6657C52.7809 30.632 52.7579 30.6036 52.727 30.5866C52.4223 30.4128 52.0969 30.2782 51.7585 30.1858C51.4177 30.0914 51.0647 30.0487 50.7112 30.0591C49.9951 30.0757 49.2965 30.2842 48.6884 30.6629C48.6658 30.6773 48.6463 30.696 48.6309 30.7179C48.6155 30.7398 48.6045 30.7645 48.5987 30.7907C48.5929 30.8168 48.5923 30.8439 48.5969 30.8702C48.6015 30.8966 48.6113 30.9218 48.6256 30.9444C48.64 30.9671 48.6587 30.9866 48.6806 31.002C48.7025 31.0174 48.7272 31.0283 48.7534 31.0341C48.7795 31.04 48.8066 31.0406 48.8329 31.036C48.8593 31.0314 48.8845 31.0216 48.9072 31.0072L48.912 31.0041L48.9271 30.9947Z" fill="#0C0C0C"/>
<path d="M43.2541 31.5942C42.5562 31.4321 41.8275 31.4601 41.1441 31.6754C40.8062 31.7797 40.4859 31.9341 40.1939 32.1334C39.9032 32.3299 39.6384 32.5623 39.406 32.8252C39.3936 32.838 39.3837 32.8531 39.3771 32.8697C39.3705 32.8863 39.3672 32.904 39.3675 32.9218C39.368 32.9579 39.3827 32.9923 39.4086 33.0174C39.4344 33.0426 39.4692 33.0564 39.5052 33.0559C39.5413 33.0555 39.5757 33.0407 39.6008 33.0148L39.6081 33.0075C39.8318 32.7712 40.0844 32.5639 40.3599 32.3907C40.6324 32.2172 40.9296 32.0859 41.2414 32.0014C41.8607 31.8286 42.5147 31.823 43.1369 31.9852L43.1523 31.9894C43.2045 32.0038 43.2602 31.9969 43.3073 31.9703C43.3544 31.9436 43.3889 31.8993 43.4033 31.8472C43.4177 31.795 43.4108 31.7393 43.3842 31.6922C43.3575 31.6451 43.3132 31.6106 43.261 31.5962L43.2541 31.5942Z" fill="#0C0C0C"/>
<path d="M46.9172 45.3208C47.1221 45.3018 47.325 45.2653 47.5237 45.2118C47.5692 45.1997 47.6081 45.17 47.6317 45.1293C47.6554 45.0886 47.6618 45.0401 47.6498 44.9946C47.6377 44.9491 47.608 44.9102 47.5673 44.8866C47.5265 44.8629 47.4781 44.8564 47.4326 44.8685C46.2371 45.186 45.5706 44.7192 45.5426 44.699C45.5046 44.6712 45.4572 44.6596 45.4106 44.6667C45.3641 44.6739 45.3223 44.6992 45.2945 44.7372C45.2666 44.7752 45.255 44.8227 45.2622 44.8692C45.2694 44.9157 45.2947 44.9575 45.3327 44.9854C45.8062 45.277 46.3662 45.3955 46.9172 45.3208Z" fill="#0C0C0C"/>
<path d="M31.1343 35.6237C35.3403 34.2108 36.8116 31.3845 37.3053 29.2622C37.6256 27.8466 37.6467 26.3797 37.3674 24.9554L37.2375 24.9866C37.5124 26.3923 37.4907 27.84 37.1736 29.2368C36.6867 31.3242 35.2348 34.1046 31.091 35.4976L31.1343 35.6237Z" fill="#0C0C0C"/>
<path opacity="0.1" d="M42.2171 40.9239C43.1258 40.845 43.8154 40.2407 43.7575 39.5743C43.6997 38.9078 42.9162 38.4315 42.0075 38.5104C41.0989 38.5893 40.4092 39.1936 40.4671 39.86C40.525 40.5265 41.3085 41.0028 42.2171 40.9239Z" fill="#0C0C0C"/>
<path opacity="0.1" d="M51.8664 38.5778C51.9262 39.2434 52.7095 39.7192 53.6182 39.6415C53.7753 39.6277 53.9305 39.5978 54.0813 39.5521C54.1487 38.7629 54.1757 38.0025 54.1752 37.2977C53.9258 37.2268 53.6654 37.2032 53.4074 37.2279C52.4987 37.3056 51.8095 37.9097 51.8664 38.5778Z" fill="#0C0C0C"/>
<path d="M10.6431 124.739L8.86606 138.672L66.0067 139.495L65.3277 125.439L10.6431 124.739Z" fill="#262626"/>
<path d="M38.5809 65.4592C29.4884 64.8995 29.2166 57.171 29.2166 57.171C29.2166 57.171 24.7041 57.3975 21.7011 57.7598C16.7851 58.3528 11.5594 59.9628 9.14004 64.0082C7.4009 66.9171 6.98465 67.442 8.28988 84.0167C9.23496 96.0177 10.6423 124.74 10.6423 124.74L65.3269 125.44C65.3269 125.44 68.2905 88.6749 68.8273 83.2861C69.8519 72.9997 71.444 58.5036 68.5187 57.7367C65.1106 56.8432 53.9262 58.0702 50.323 57.4746C50.262 57.4657 50.9634 66.2219 38.5809 65.4592Z" fill="#367CFF"/>
<path d="M136.078 26.4865C136.16 26.3081 136.278 26.1482 136.424 26.0167C136.57 25.8852 136.741 25.7848 136.927 25.7217C137.113 25.6586 137.31 25.634 137.506 25.6496C137.702 25.6651 137.893 25.7204 138.066 25.8121C138.397 26.0011 138.643 26.3085 138.755 26.6721C138.868 27.0357 138.838 27.4284 138.671 27.7708L137.854 29.5452L143.003 25.1291C143.567 24.6281 144.579 24.3739 145.099 25.0434C145.316 25.288 145.444 25.5988 145.461 25.9251C145.478 26.2515 145.385 26.5741 145.195 26.8403C145.202 26.8446 145.208 26.8497 145.213 26.8555C145.216 26.8601 145.219 26.865 145.221 26.87L146.091 26.0974C146.251 25.9554 146.441 25.8506 146.646 25.7906C146.852 25.7306 147.068 25.717 147.28 25.7507C147.491 25.7844 147.692 25.8645 147.869 25.9854C148.046 26.1063 148.193 26.2648 148.302 26.4496C148.468 26.7482 148.526 27.0949 148.465 27.4312C148.405 27.7675 148.231 28.0727 147.971 28.2951L147.601 28.6237C147.606 28.6392 147.608 28.6556 147.607 28.6718C147.905 28.509 148.251 28.4566 148.585 28.5238C148.918 28.591 149.217 28.7735 149.429 29.0392C149.655 29.3449 149.757 29.7253 149.714 30.1034C149.671 30.4815 149.486 30.8292 149.197 31.0761L148.287 31.8841C148.308 31.8817 148.33 31.8844 148.35 31.892C148.369 31.8995 148.387 31.9116 148.401 31.9274C148.417 31.947 148.427 31.9708 148.43 31.9959C148.731 31.9262 149.046 31.9545 149.33 32.0767C149.613 32.199 149.85 32.4087 150.006 32.6753C150.172 32.9738 150.23 33.3206 150.169 33.6569C150.109 33.9932 149.935 34.2984 149.675 34.5207L141.922 41.4107C140.837 42.3745 139.489 42.9923 138.051 43.1851C136.613 43.3778 135.15 43.1366 133.849 42.4924L129.663 40.4183L136.078 26.4865Z" fill="#E98862"/>
<g opacity="0.2">
<path d="M140.122 31.2385C140.146 31.2645 140.178 31.2803 140.213 31.2825C140.248 31.2847 140.282 31.2731 140.309 31.2502L145.2 27.0445C145.213 27.0331 145.224 27.0191 145.232 27.0035C145.24 26.9878 145.244 26.9708 145.246 26.9533C145.247 26.9358 145.245 26.9183 145.239 26.9016C145.234 26.8849 145.225 26.8695 145.214 26.8562C145.202 26.8429 145.188 26.832 145.173 26.8241C145.157 26.8162 145.14 26.8115 145.123 26.8102C145.105 26.8088 145.087 26.811 145.071 26.8164C145.054 26.8219 145.039 26.8306 145.025 26.8421L140.133 31.048C140.12 31.0595 140.109 31.0734 140.101 31.0891C140.093 31.1047 140.089 31.1218 140.087 31.1393C140.086 31.1567 140.088 31.1743 140.094 31.191C140.099 31.2076 140.108 31.223 140.119 31.2363L140.122 31.2385Z" fill="#0C0C0C"/>
</g>
<g opacity="0.2">
<path d="M141.917 33.4456C141.941 33.4717 141.973 33.4875 142.008 33.4898C142.043 33.492 142.078 33.4805 142.104 33.4576L147.562 28.7635C147.575 28.7521 147.586 28.7382 147.594 28.7225C147.602 28.7069 147.607 28.6898 147.608 28.6724C147.61 28.6549 147.607 28.6373 147.602 28.6206C147.596 28.604 147.588 28.5886 147.576 28.5753C147.553 28.5495 147.52 28.5337 147.485 28.5311C147.45 28.5285 147.415 28.5393 147.388 28.5614L141.93 33.2552C141.917 33.2666 141.906 33.2805 141.898 33.2962C141.89 33.3119 141.885 33.3289 141.884 33.3464C141.883 33.3639 141.885 33.3814 141.89 33.3981C141.896 33.4147 141.904 33.4301 141.916 33.4434L141.917 33.4456Z" fill="#0C0C0C"/>
</g>
<g opacity="0.2">
<path d="M143.849 35.8482C143.872 35.8742 143.905 35.8901 143.94 35.8924C143.975 35.8946 144.009 35.8831 144.036 35.8602L148.39 32.116C148.417 32.0929 148.433 32.0601 148.436 32.0248C148.439 31.9894 148.427 31.9545 148.404 31.9276C148.381 31.9008 148.348 31.8842 148.313 31.8816C148.277 31.879 148.242 31.8905 148.216 31.9136L143.862 35.6578C143.848 35.6692 143.838 35.6831 143.83 35.6988C143.822 35.7144 143.817 35.7315 143.816 35.7489C143.814 35.7664 143.816 35.784 143.822 35.8007C143.827 35.8173 143.836 35.8327 143.848 35.846L143.849 35.8482Z" fill="#0C0C0C"/>
</g>
<path d="M131.134 31.3658L101.812 54.6878L61.6436 57.7289C59.0679 57.9074 56.6608 59.0744 54.9252 60.9859C53.1896 62.8975 52.2599 65.4058 52.3301 67.9867C52.4004 70.5677 53.4653 73.0216 55.3023 74.8359C57.1393 76.6502 59.6063 77.6844 62.1879 77.7226C62.4708 77.7267 62.7557 77.7187 63.0425 77.6986L106.364 74.4365C108.415 74.2927 110.373 73.5202 111.97 72.2242L142.709 45.7358L131.134 31.3658Z" fill="#367CFF"/>
<path d="M134.275 25.064L140.335 23.4594L142.558 17.5884L145.831 22.8204L152.059 22.9964L148.022 27.8345L149.648 33.8143L143.88 31.5721L138.657 35.0918L139.13 28.8682L134.275 25.064Z" fill="#0CBC8B"/>
<path d="M137.579 30.2081L138.673 27.7706C138.839 27.4283 138.869 27.0356 138.757 26.6719C138.644 26.3083 138.398 26.0009 138.068 25.8119C137.894 25.7202 137.703 25.6649 137.508 25.6494C137.312 25.6339 137.115 25.6584 136.929 25.7215C136.743 25.7846 136.571 25.885 136.425 26.0165C136.279 26.148 136.162 26.3079 136.079 26.4864" fill="#E98862"/>
<path d="M60.8562 102.715C60.8218 103.094 60.6446 103.446 60.3605 103.699C60.0765 103.952 59.7068 104.087 59.3265 104.078L58.11 104.075C58.1272 104.087 58.1412 104.103 58.1508 104.122C58.1603 104.141 58.1653 104.161 58.1651 104.182C58.165 104.208 58.1568 104.233 58.1416 104.253C58.4124 104.402 58.6284 104.633 58.7581 104.913C58.8878 105.194 58.9243 105.508 58.8624 105.811C58.7864 106.144 58.5979 106.44 58.3288 106.651C58.0596 106.861 57.7261 106.973 57.3845 106.966L47.0142 106.929C45.5632 106.924 44.1465 106.487 42.946 105.672C41.7455 104.856 40.816 103.701 40.2768 102.354L38.5372 98.0161L44.072 96.9213L44.2237 95.5477L52.6093 91.9096C52.7895 91.8314 52.9837 91.7906 53.1802 91.7899C53.3766 91.7892 53.5712 91.8285 53.7519 91.9055C53.9327 91.9824 54.0959 92.0954 54.2315 92.2374C54.3672 92.3795 54.4725 92.5478 54.541 92.7319C54.6612 93.093 54.6399 93.4863 54.4813 93.8323C54.3227 94.1783 54.0387 94.4512 53.6867 94.5959L51.8933 95.3731L58.6751 95.5164C59.4306 95.5187 60.3541 96.0037 60.2953 96.8478C60.2944 97.1747 60.1827 97.4918 59.9783 97.747C59.774 98.0022 59.489 98.1805 59.1701 98.2528C59.17 98.261 59.1715 98.2669 59.1719 98.2755L59.1675 98.2906L60.3307 98.2951C60.5451 98.2957 60.7568 98.3439 60.9502 98.4363C61.1437 98.5287 61.3143 98.663 61.4495 98.8294C61.5847 98.9958 61.6813 99.1902 61.7322 99.3985C61.783 99.6068 61.787 99.8238 61.7437 100.034C61.6687 100.367 61.4809 100.663 61.2122 100.873C60.9435 101.084 60.6104 101.194 60.2693 101.187L59.7717 101.187C59.7646 101.2 59.7563 101.213 59.7469 101.224C60.0774 101.303 60.3696 101.496 60.5724 101.768C60.7752 102.041 60.8757 102.376 60.8562 102.715Z" fill="#E98862"/>
<g opacity="0.2">
<path d="M52.4541 98.1466C52.4542 98.1816 52.4681 98.2151 52.4927 98.24C52.5173 98.2648 52.5507 98.2791 52.5857 98.2796L59.0351 98.4061C59.0705 98.4066 59.1046 98.393 59.13 98.3684C59.1554 98.3437 59.1699 98.31 59.1704 98.2746C59.1709 98.2392 59.1574 98.205 59.1327 98.1796C59.108 98.1543 59.0743 98.1397 59.0389 98.1392L52.5895 98.0127C52.5541 98.0122 52.52 98.0257 52.4946 98.0504C52.4692 98.075 52.4546 98.1088 52.4541 98.1442L52.4541 98.1466Z" fill="#0C0C0C"/>
</g>
<g opacity="0.2">
<path d="M52.3193 100.99C52.3195 101.025 52.3333 101.059 52.3579 101.083C52.3825 101.108 52.4159 101.123 52.4509 101.123L59.6483 101.264C59.6837 101.265 59.7179 101.251 59.7433 101.227C59.7686 101.202 59.7832 101.168 59.7837 101.133C59.7831 101.098 59.7691 101.064 59.7447 101.039C59.7203 101.014 59.6872 100.999 59.6522 100.997L52.4547 100.856C52.4193 100.856 52.3852 100.869 52.3598 100.894C52.3344 100.919 52.3199 100.953 52.3194 100.988L52.3193 100.99Z" fill="#0C0C0C"/>
</g>
<g opacity="0.2">
<path d="M52.1562 104.067C52.1564 104.102 52.1702 104.136 52.1948 104.161C52.2194 104.186 52.2528 104.2 52.2878 104.2L58.0289 104.313C58.0643 104.314 58.0985 104.3 58.1239 104.275C58.1493 104.251 58.1638 104.217 58.1643 104.182C58.1648 104.146 58.1513 104.112 58.1266 104.087C58.1019 104.061 58.0682 104.047 58.0328 104.046L52.2916 103.934C52.2563 103.933 52.2221 103.947 52.1967 103.971C52.1713 103.996 52.1568 104.03 52.1563 104.065L52.1562 104.067Z" fill="#0C0C0C"/>
</g>
<path d="M46.4339 110.007L2.90904 117.115C1.07815 117.573 -0.844887 117.503 -2.63819 116.915C-4.4315 116.327 -6.02201 115.244 -7.22621 113.791C-8.43042 112.338 -9.19926 110.574 -9.44403 108.703C-9.68879 106.831 -9.39951 104.929 -8.60956 103.215L7.73046 66.6653C10.0451 61.6448 15.6188 59.4457 20.6385 61.7601C23.0492 62.8714 24.9198 64.8949 25.8387 67.3853C26.7576 69.8758 26.6495 72.6293 25.5383 75.0401L15.9367 96.9151L45.0266 93.4755L46.4339 110.007Z" fill="#367CFF"/>
<path d="M10.4073 116.073C10.4197 116.073 10.4322 116.072 10.4442 116.068L46.4689 110.135C46.5024 110.125 46.531 110.104 46.5486 110.074C46.5663 110.044 46.5715 110.008 46.5633 109.974L45.1639 92.9086C45.1557 92.8747 45.1344 92.8453 45.1047 92.8269C45.075 92.8084 45.0393 92.8024 45.0052 92.81L16.1797 96.7251L25.6557 75.0984C25.6694 75.0671 25.6706 75.0316 25.6589 74.9994C25.6473 74.9673 25.6237 74.9408 25.593 74.9255C25.5624 74.9102 25.5271 74.9073 25.4943 74.9173C25.4616 74.9274 25.434 74.9496 25.4172 74.9794L15.8175 96.8544C15.8065 96.8769 15.8021 96.902 15.8047 96.9269C15.8073 96.9518 15.8169 96.9754 15.8323 96.9951C15.8477 97.0148 15.8684 97.0298 15.8919 97.0383C15.9154 97.0469 15.9408 97.0486 15.9653 97.0434L44.9357 93.097L46.273 109.91L10.3739 115.812C10.3428 115.82 10.3157 115.839 10.2977 115.866C10.2797 115.893 10.2721 115.925 10.2761 115.957C10.2802 115.989 10.2957 116.019 10.3198 116.04C10.3439 116.062 10.375 116.074 10.4073 116.074L10.4073 116.073Z" fill="#0C0C0C"/>
<path d="M12.3351 97.4762C12.3446 97.4763 12.3541 97.4754 12.3634 97.4734L15.964 97.0448C15.9813 97.0414 15.9978 97.0347 16.0125 97.0249C16.0272 97.0152 16.0398 97.0026 16.0496 96.988C16.0595 96.9733 16.0663 96.9569 16.0697 96.9396C16.0731 96.9223 16.0731 96.9045 16.0695 96.8872C16.066 96.8699 16.0591 96.8535 16.0492 96.8388C16.0394 96.8242 16.0267 96.8118 16.0119 96.8021C15.9972 96.7924 15.9806 96.7858 15.9633 96.7825C15.9459 96.7793 15.9281 96.7795 15.9109 96.7832L12.3103 97.2118C12.2782 97.2185 12.2496 97.2368 12.2301 97.2632C12.2106 97.2896 12.2016 97.3223 12.2046 97.3549C12.2077 97.3876 12.2227 97.418 12.2467 97.4403C12.2708 97.4627 12.3023 97.4753 12.3351 97.4759L12.3351 97.4762Z" fill="#0C0C0C"/>
<path d="M69.4214 77.3838C69.4551 77.3844 69.4877 77.3723 69.5128 77.3498C69.5379 77.3274 69.5535 77.2963 69.5567 77.2627L70.2622 69.5745C70.2654 69.5391 70.2545 69.504 70.2317 69.4767C70.209 69.4494 70.1764 69.4322 70.1411 69.429C70.1057 69.4258 70.0705 69.4367 70.0432 69.4594C70.0159 69.4821 69.9988 69.5148 69.9956 69.5501L69.2901 77.2383C69.2869 77.2735 69.2978 77.3086 69.3205 77.3357C69.3431 77.3629 69.3756 77.3799 69.4108 77.3832C69.4143 77.3837 69.4179 77.3839 69.4214 77.3838Z" fill="#0C0C0C"/>
<path d="M51.8565 33.5626C52.3353 33.5695 52.729 33.187 52.7359 32.7082C52.7428 32.2295 52.3602 31.8358 51.8815 31.8289C51.4027 31.822 51.0091 32.2045 51.0022 32.6833C50.9953 33.162 51.3778 33.5557 51.8565 33.5626Z" fill="#0C0C0C"/>
<path d="M43.0479 34.92C43.5267 34.9269 43.9204 34.5444 43.9273 34.0657C43.9342 33.5869 43.5517 33.1932 43.0729 33.1863C42.5942 33.1794 42.2005 33.5619 42.1936 34.0407C42.1867 34.5194 42.5692 34.9131 43.0479 34.92Z" fill="#0C0C0C"/>
</g>
<defs>
<clipPath id="clip0_1_6090">
<rect width="183.332" height="137.44" fill="white" transform="translate(-25.2852 0.992188) rotate(0.825337)"/>
</clipPath>
</defs>
</svg>
