<svg width="25" height="25" viewBox="0 0 25 25" fill="none" xmlns="http://www.w3.org/2000/svg">
<path fill-rule="evenodd" clip-rule="evenodd" d="M9.61683 8.30265C8.89891 8.0223 8.10853 7.98675 7.36835 8.20153C6.62816 8.4163 5.97956 8.86939 5.52321 9.49047C5.06685 10.1116 4.82826 10.8659 4.84446 11.6364C4.86066 12.407 5.13075 13.1506 5.6128 13.752C6.09485 14.3534 6.76192 14.7788 7.51048 14.9623C8.25904 15.1457 9.04723 15.077 9.75273 14.7667C10.4582 14.4564 11.0416 13.922 11.4123 13.2463C11.783 12.5705 11.9203 11.7914 11.8028 11.0297C11.7827 10.8986 11.8154 10.7648 11.8939 10.6579C11.9723 10.551 12.09 10.4796 12.2211 10.4594C12.3522 10.4392 12.4859 10.472 12.5928 10.5504C12.6998 10.6289 12.7712 10.7466 12.7913 10.8777C12.9421 11.857 12.7655 12.8587 12.2888 13.7274C11.8121 14.5961 11.062 15.2831 10.1549 15.6819C9.24786 16.0807 8.23452 16.169 7.27215 15.933C6.30978 15.6971 5.4522 15.1501 4.83248 14.3769C4.21276 13.6038 3.86556 12.6477 3.84474 11.657C3.82393 10.6664 4.13068 9.69653 4.71738 8.89803C5.30408 8.09952 6.13793 7.51698 7.08954 7.24082C8.04115 6.96465 9.05731 7.01029 9.98033 7.37065C10.0423 7.3939 10.0991 7.42924 10.1473 7.47461C10.1956 7.51998 10.2343 7.57448 10.2613 7.63494C10.2883 7.69541 10.303 7.76063 10.3046 7.82683C10.3062 7.89303 10.2946 7.95889 10.2705 8.02058C10.2465 8.08226 10.2104 8.13855 10.1644 8.18618C10.1184 8.23381 10.0634 8.27183 10.0026 8.29802C9.94173 8.32422 9.87632 8.33807 9.81011 8.33878C9.74389 8.33949 9.6782 8.32704 9.61683 8.30215V8.30265Z" fill="#307771"/>
<path fill-rule="evenodd" clip-rule="evenodd" d="M7.84375 20.0625V16.0625C7.84375 15.9299 7.89643 15.8027 7.9902 15.7089C8.08396 15.6152 8.21114 15.5625 8.34375 15.5625C8.47636 15.5625 8.60354 15.6152 8.6973 15.7089C8.79107 15.8027 8.84375 15.9299 8.84375 16.0625V20.0625C8.84375 20.1951 8.79107 20.3223 8.6973 20.4161C8.60354 20.5098 8.47636 20.5625 8.34375 20.5625C8.21114 20.5625 8.08396 20.5098 7.9902 20.4161C7.89643 20.3223 7.84375 20.1951 7.84375 20.0625Z" fill="#307771"/>
<path fill-rule="evenodd" clip-rule="evenodd" d="M6.34375 17.5625C6.34375 17.4299 6.39643 17.3027 6.4902 17.209C6.58396 17.1152 6.71114 17.0625 6.84375 17.0625H9.84375C9.97636 17.0625 10.1035 17.1152 10.1973 17.209C10.2911 17.3027 10.3438 17.4299 10.3438 17.5625C10.3438 17.6951 10.2911 17.8223 10.1973 17.9161C10.1035 18.0098 9.97636 18.0625 9.84375 18.0625H6.84375C6.71114 18.0625 6.58396 18.0098 6.4902 17.9161C6.39643 17.8223 6.34375 17.6951 6.34375 17.5625ZM15.2948 8.19401C14.7406 8.03758 14.1565 8.02026 13.5941 8.1436C13.0317 8.26693 12.5084 8.52711 12.0706 8.90106C11.6328 9.27501 11.2941 9.75119 11.0843 10.2874C10.8746 10.8236 10.8004 11.4033 10.8682 11.975C10.8764 12.0404 10.8715 12.1067 10.8539 12.1702C10.8363 12.2337 10.8063 12.2931 10.7657 12.3449C10.725 12.3968 10.6746 12.4401 10.6171 12.4724C10.5597 12.5047 10.4965 12.5253 10.4311 12.5331C10.3656 12.5409 10.2993 12.5356 10.2359 12.5177C10.1725 12.4998 10.1133 12.4695 10.0617 12.4286C10.01 12.3877 9.96697 12.337 9.93497 12.2794C9.90298 12.2218 9.88268 12.1585 9.87525 12.093C9.75843 11.109 9.96966 10.114 10.4762 9.26233C10.9827 8.41066 11.7561 7.74998 12.6765 7.38282C13.5968 7.01566 14.6126 6.96254 15.5663 7.23171C16.5199 7.50088 17.358 8.07729 17.9506 8.87148C18.5431 9.66568 18.857 10.6332 18.8434 11.6241C18.8299 12.6149 18.4897 13.5735 17.8756 14.3512C17.2616 15.1289 16.408 15.6821 15.4473 15.9251C14.4867 16.1681 13.4727 16.0872 12.5627 15.695C12.5024 15.669 12.4478 15.6314 12.4021 15.5844C12.3563 15.5373 12.3202 15.4817 12.2959 15.4207C12.2469 15.2975 12.2488 15.1598 12.3013 15.038C12.3537 14.9162 12.4524 14.8202 12.5756 14.7712C12.6988 14.7221 12.8364 14.7241 12.9583 14.7765C13.3984 14.9673 13.873 15.0655 14.3527 15.0652C14.8324 15.0648 15.3069 14.9659 15.7468 14.7745C16.1866 14.5832 16.5825 14.3034 16.9097 13.9527C17.237 13.6019 17.4886 13.1877 17.6491 12.7356C17.8095 12.2836 17.8754 11.8033 17.8425 11.3248C17.8096 10.8462 17.6788 10.3795 17.458 9.95365C17.2372 9.52777 16.9313 9.15182 16.5591 8.84912C16.187 8.54642 15.7567 8.32344 15.2948 8.19401Z" fill="#307771"/>
<path fill-rule="evenodd" clip-rule="evenodd" d="M17.2401 9.16531C17.1464 9.07154 17.0938 8.94439 17.0938 8.81181C17.0938 8.67923 17.1464 8.55207 17.2401 8.45831L20.9901 4.70831C21.0363 4.66055 21.0914 4.62246 21.1524 4.59626C21.2134 4.57005 21.2791 4.55626 21.3454 4.55568C21.4118 4.55511 21.4777 4.56776 21.5391 4.5929C21.6006 4.61804 21.6564 4.65516 21.7033 4.70211C21.7503 4.74906 21.7874 4.80488 21.8126 4.86633C21.8377 4.92778 21.8503 4.99362 21.8498 5.06001C21.8492 5.1264 21.8354 5.19201 21.8092 5.25301C21.783 5.31401 21.7449 5.36918 21.6971 5.41531L17.9471 9.16531C17.8534 9.25904 17.7262 9.3117 17.5936 9.3117C17.4611 9.3117 17.3339 9.25904 17.2401 9.16531Z" fill="#307771"/>
<path fill-rule="evenodd" clip-rule="evenodd" d="M21.3058 8.06216C21.2401 8.06132 21.1753 8.04754 21.1149 8.02163C21.0546 7.99571 21 7.95817 20.9541 7.91113C20.9083 7.8641 20.8722 7.8085 20.8479 7.74751C20.8235 7.68651 20.8114 7.62133 20.8123 7.55566L20.8373 5.56866L18.8503 5.59366C18.7177 5.59539 18.5898 5.54436 18.4948 5.45181C18.3998 5.35926 18.3455 5.23277 18.3438 5.10016C18.3421 4.96756 18.3931 4.83969 18.4856 4.74471C18.5782 4.64972 18.7047 4.59539 18.8373 4.59366L21.8503 4.55566L21.8123 7.56816C21.8115 7.63387 21.7978 7.69878 21.7719 7.75917C21.746 7.81957 21.7085 7.87427 21.6614 7.92015C21.6144 7.96603 21.5588 8.00219 21.4977 8.02655C21.4367 8.05092 21.3715 8.06302 21.3058 8.06216Z" fill="#307771"/>
</svg>
