<svg width="17" height="10" viewBox="0 0 17 10" fill="none" xmlns="http://www.w3.org/2000/svg">
<path d="M1.79595 0.544866L8.69027 7.43916L15.5846 0.544866C15.7676 0.361806 16.0218 0.293157 16.2581 0.338927C16.4 0.366387 16.5354 0.435026 16.6452 0.544866C16.6818 0.581476 16.7139 0.620936 16.7413 0.662516C16.9335 0.953636 16.9015 1.34925 16.6452 1.60553L9.22057 9.03016C9.07987 9.17076 8.88917 9.24986 8.69027 9.24986C8.49137 9.24986 8.30057 9.17076 8.15987 9.03016L0.735293 1.60553C0.442402 1.31264 0.442402 0.837756 0.735293 0.544866C1.02818 0.251976 1.50306 0.251976 1.79595 0.544866Z" fill="black"/>
</svg>
