<svg width="17" height="10" viewBox="0 0 17 10" fill="none" xmlns="http://www.w3.org/2000/svg">
<path d="M15.58 9.45416L8.6857 2.55987L1.7914 9.45416C1.60841 9.63722 1.35421 9.70587 1.1179 9.6601C0.976005 9.63264 0.840605 9.564 0.730804 9.45416C0.694204 9.41755 0.662104 9.37809 0.634705 9.33651C0.442505 9.04539 0.474504 8.64978 0.730804 8.3935L8.1554 0.968867C8.2961 0.828267 8.4868 0.749167 8.6857 0.749167C8.8846 0.749167 9.0754 0.828267 9.2161 0.968867L16.6407 8.3935C16.9336 8.68639 16.9336 9.16127 16.6407 9.45416C16.3478 9.74705 15.8729 9.74705 15.58 9.45416Z" fill="black"/>
</svg>
