<svg width="20" height="18" viewBox="0 0 20 18" fill="none" xmlns="http://www.w3.org/2000/svg">
<path d="M11.045 2.1065L17.1893 8.25083H0.75C0.74676 8.25083 0.74353 8.25083 0.7403 8.25083C0.69191 8.25143 0.64462 8.25663 0.59885 8.26603C0.25708 8.33593 0 8.63833 0 9.00083C0 9.10433 0.0209801 9.20303 0.0589401 9.29273C0.17279 9.56193 0.43934 9.75083 0.75 9.75083H17.1893L11.045 15.895C10.7521 16.1879 10.7521 16.6628 11.045 16.9557C11.3379 17.2486 11.8128 17.2486 12.1057 16.9557L19.5303 9.53113C19.8232 9.23823 19.8232 8.76333 19.5303 8.47043L12.1057 1.04584C12.1011 1.04126 12.0965 1.03676 12.0918 1.03232C12.0592 1.00129 12.0244 0.973761 11.988 0.949731C11.7801 0.812441 11.5188 0.789561 11.2931 0.881091C11.2028 0.917701 11.1182 0.972621 11.045 1.04584C11.0404 1.05042 11.0359 1.05504 11.0315 1.0597C10.7522 1.35353 10.7567 1.81818 11.045 2.1065Z" fill="#837DD3"/>
</svg>
