<svg width="24" height="13" viewBox="0 0 24 13" fill="none" xmlns="http://www.w3.org/2000/svg">
<path d="M16.4996 2.16607C16.7925 1.87318 16.7925 1.39831 16.4996 1.10541C16.2067 0.812519 15.7318 0.812519 15.4389 1.10541L5.99629 10.548L2.06022 6.66072C1.76551 6.36966 1.29064 6.37262 0.999579 6.66733C0.708517 6.96204 0.711475 7.43691 1.00619 7.72797L5.47256 12.139C5.76598 12.4288 6.23831 12.4273 6.52991 12.1357L16.4996 2.16607Z" fill="#6E4AEC"/>
<path d="M11.9759 12.1424L10.4684 10.6721L11.5291 9.6114L12.493 10.5514L21.9389 1.10541C22.2318 0.812521 22.7067 0.812521 22.9996 1.10541C23.2925 1.39831 23.2925 1.87318 22.9996 2.16607L13.0299 12.1357C12.7396 12.426 12.2698 12.429 11.9759 12.1424Z" fill="#6E4AEC"/>
</svg>
