<svg width="21" height="16" viewBox="0 0 21 16" fill="none" xmlns="http://www.w3.org/2000/svg">
<path d="M5.0625 12.5C5.75286 12.5 6.3125 11.9404 6.3125 11.25C6.3125 10.5596 5.75286 10 5.0625 10C4.37214 10 3.8125 10.5596 3.8125 11.25C3.8125 11.9404 4.37214 12.5 5.0625 12.5Z" fill="black"/>
<path fill-rule="evenodd" clip-rule="evenodd" d="M2.3125 0C1.20793 0 0.3125 0.89543 0.3125 2V14C0.3125 15.1046 1.20793 16 2.3125 16H18.3125C19.4171 16 20.3125 15.1046 20.3125 14V2C20.3125 0.89543 19.4171 0 18.3125 0H2.3125ZM18.8125 2C18.8125 1.72386 18.5886 1.5 18.3125 1.5H2.3125C2.03636 1.5 1.8125 1.72386 1.8125 2V5H18.8125V2ZM18.8125 6.5H1.8125V14C1.8125 14.2761 2.03636 14.5 2.3125 14.5H18.3125C18.5886 14.5 18.8125 14.2761 18.8125 14V6.5Z" fill="black"/>
</svg>
