<svg width="21" height="17" viewBox="0 0 21 17" fill="none" xmlns="http://www.w3.org/2000/svg">
<path d="M12.5625 10C12.1483 10 11.8125 9.66421 11.8125 9.25V7.75C11.8125 7.33579 12.1483 7 12.5625 7C12.9767 7 13.3125 7.33579 13.3125 7.75V9.25C13.3125 9.66421 12.9767 10 12.5625 10Z" fill="black"/>
<path fill-rule="evenodd" clip-rule="evenodd" d="M2.3125 0.5C1.20793 0.5 0.3125 1.39543 0.3125 2.5V5.70001C0.3125 5.97616 0.536358 6.20002 0.8125 6.20002C2.19321 6.20002 3.3125 7.3193 3.3125 8.70002C3.3125 10.0807 2.19321 11.2 0.812501 11.2C0.536359 11.2 0.3125 11.4239 0.3125 11.7V14.5C0.3125 15.6046 1.20793 16.5 2.3125 16.5H18.3125C19.4171 16.5 20.3125 15.6046 20.3125 14.5V11.5C20.3125 11.2239 20.0886 11 19.8125 11C18.4318 11 17.3125 9.88073 17.3125 8.50002C17.3125 7.1193 18.4318 6.00002 19.8125 6.00002C20.0886 6.00002 20.3125 5.77616 20.3125 5.50002V2.5C20.3125 1.39543 19.4171 0.5 18.3125 0.5H2.3125ZM1.8125 2.5C1.8125 2.22386 2.03636 2 2.3125 2H11.8125V4C11.8125 4.41421 12.1483 4.75 12.5625 4.75C12.9767 4.75 13.3125 4.41421 13.3125 4V2H18.3125C18.5886 2 18.8125 2.22386 18.8125 2.5V4.62603C17.0873 5.07008 15.8125 6.63618 15.8125 8.50002C15.8125 10.3639 17.0873 11.93 18.8125 12.374V14.5C18.8125 14.7761 18.5886 15 18.3125 15H13.3125V13C13.3125 12.5858 12.9767 12.25 12.5625 12.25C12.1483 12.25 11.8125 12.5858 11.8125 13V15H2.3125C2.03636 15 1.8125 14.7761 1.8125 14.5V12.574C3.53773 12.13 4.8125 10.5639 4.8125 8.70002C4.8125 6.83618 3.53773 5.27007 1.8125 4.82603V2.5Z" fill="black"/>
</svg>
