<svg width="18" height="20" viewBox="0 0 18 20" fill="none" xmlns="http://www.w3.org/2000/svg">
<path d="M9 15.25C9.6904 15.25 10.25 14.6904 10.25 14C10.25 13.3096 9.6904 12.75 9 12.75C8.3096 12.75 7.75 13.3096 7.75 14C7.75 14.6904 8.3096 15.25 9 15.25Z" fill="black"/>
<path fill-rule="evenodd" clip-rule="evenodd" d="M14 8V5C14 2.23858 11.7614 0 9 0C6.23858 0 4 2.23858 4 5V8H2C0.89543 8 0 8.89543 0 10V18C0 19.1046 0.89543 20 2 20H16C17.1046 20 18 19.1046 18 18V10C18 8.89543 17.1046 8 16 8H14ZM9 1.5C7.067 1.5 5.5 3.067 5.5 5V8H12.5V5C12.5 3.067 10.933 1.5 9 1.5ZM1.5 10C1.5 9.7239 1.72386 9.5 2 9.5H16C16.2761 9.5 16.5 9.7239 16.5 10V18C16.5 18.2761 16.2761 18.5 16 18.5H2C1.72386 18.5 1.5 18.2761 1.5 18V10Z" fill="black"/>
</svg>
