<svg width="20" height="21" viewBox="0 0 20 21" fill="none" xmlns="http://www.w3.org/2000/svg">
<path fill-rule="evenodd" clip-rule="evenodd" d="M10 2.5656C9.3644 1.42061 8.2724 0.333496 6.53125 0.333496C4.71907 0.333496 3.25 1.78857 3.25 3.5835C3.25 4.22782 3.4393 4.82835 3.76582 5.3335H2C0.89543 5.3335 0 6.22893 0 7.3335V9.8335C0 10.9381 0.89543 11.8335 2 11.8335V18.3335C2 19.4381 2.89543 20.3335 4 20.3335H16C17.1046 20.3335 18 19.4381 18 18.3335V11.8335C19.1046 11.8335 20 10.9381 20 9.8335V7.3335C20 6.22893 19.1046 5.3335 18 5.3335H16.2342C16.5607 4.82835 16.75 4.22782 16.75 3.5835C16.75 1.78857 15.2809 0.333496 13.4688 0.333496C11.7276 0.333496 10.6356 1.42061 10 2.5656ZM4.75 3.5835C4.75 4.5365 5.53393 5.3335 6.53125 5.3335H9.25V4.97636V4.97622C9.2499 4.97281 9.2474 4.90573 9.2236 4.77119C9.2007 4.64162 9.163 4.47755 9.107 4.29137C8.9938 3.915 8.8182 3.49035 8.5753 3.10126C8.0934 2.32971 7.45394 1.8335 6.53125 1.8335C5.53393 1.8335 4.75 2.6305 4.75 3.5835ZM10.75 6.8335V10.3335H18C18.2761 10.3335 18.5 10.1096 18.5 9.8335V7.3335C18.5 7.05736 18.2761 6.8335 18 6.8335H10.75ZM9.25 6.8335H2C1.72386 6.8335 1.5 7.05736 1.5 7.3335V9.8335C1.5 10.1096 1.72386 10.3335 2 10.3335H9.25V6.8335ZM15.25 3.5835C15.25 4.5365 14.4661 5.3335 13.4688 5.3335H10.75V4.97636V4.97622C10.7501 4.97281 10.7526 4.90573 10.7764 4.77119C10.7993 4.64162 10.837 4.47755 10.893 4.29137C11.0062 3.915 11.1818 3.49035 11.4247 3.10126C11.9066 2.32971 12.5461 1.8335 13.4688 1.8335C14.4661 1.8335 15.25 2.6305 15.25 3.5835ZM9.25 11.8335H3.5V18.3335C3.5 18.6096 3.72386 18.8335 4 18.8335H9.25V11.8335ZM10.75 18.8335H16C16.2761 18.8335 16.5 18.6096 16.5 18.3335V11.8335H10.75V18.8335Z" fill="#F0F0F0"/>
</svg>
