<svg width="44" height="44" viewBox="0 0 44 44" fill="none" xmlns="http://www.w3.org/2000/svg">
<path d="M22 44C34.1503 44 44 34.1503 44 22C44 9.84974 34.1503 0 22 0C9.84974 0 0 9.84974 0 22C0 34.1503 9.84974 44 22 44Z" fill="#FFD700"/>
<g opacity="0.29">
<path d="M22.0002 36.2617C29.8769 36.2617 36.2622 29.8764 36.2622 21.9997C36.2622 14.1231 29.8769 7.73779 22.0002 7.73779C14.1236 7.73779 7.73828 14.1231 7.73828 21.9997C7.73828 29.8764 14.1236 36.2617 22.0002 36.2617Z" fill="#292A2E"/>
</g>
<path d="M17.332 27.0929L18.6622 25.0303C19.4824 25.7601 20.5259 26.1898 21.6221 26.2491C22.7979 26.2491 23.315 25.761 23.315 24.8173C23.315 22.6827 17.8393 22.7216 17.8393 18.9782C17.8393 16.5715 19.5061 15.0387 22.134 15.0387C22.8806 15.0279 23.6206 15.1797 24.3026 15.4837C24.9847 15.7877 25.5923 16.2365 26.0834 16.799L24.5576 18.5465C24.2696 18.2305 23.9214 17.9754 23.5334 17.796C23.1454 17.6166 22.7255 17.5166 22.2982 17.5018C21.3 17.5018 20.7585 17.9046 20.7585 18.8366C20.7585 20.8145 26.2343 20.6416 26.2343 24.6072C26.2343 26.9867 24.658 28.7122 21.6215 28.7122C20.0489 28.6772 18.5354 28.1059 17.332 27.0929ZM20.9802 13.0068H23.004V15.9946H20.9802V13.0068ZM20.9802 27.4661H23.004V30.744H20.9802V27.4661Z" fill="#FFD700"/>
</svg>
