<svg width="12" height="12" viewBox="0 0 12 12" fill="none" xmlns="http://www.w3.org/2000/svg">
<path fill-rule="evenodd" clip-rule="evenodd" d="M8.66602 2.66667C8.66602 4.13943 7.47208 5.33333 5.99935 5.33333C4.52659 5.33333 3.33268 4.13943 3.33268 2.66667C3.33268 1.19391 4.52659 0 5.99935 0C7.47208 0 8.66602 1.19391 8.66602 2.66667ZM7.66602 2.66667C7.66602 3.58714 6.91982 4.33333 5.99935 4.33333C5.07888 4.33333 4.33268 3.58714 4.33268 2.66667C4.33268 1.74619 5.07888 1 5.99935 1C6.91982 1 7.66602 1.74619 7.66602 2.66667Z" fill="black"/>
<path fill-rule="evenodd" clip-rule="evenodd" d="M11.3327 9.4444C11.3327 9.15553 11.2421 8.8716 11.0537 8.65267C9.83108 7.23253 8.02022 6.33333 5.99935 6.33333C3.97846 6.33333 2.16758 7.23253 0.944996 8.65267C0.756522 8.8716 0.666016 9.15553 0.666016 9.4444V10.6667C0.666016 11.4031 1.26297 12 1.99935 12H9.99935C10.7357 12 11.3327 11.4031 11.3327 10.6667V9.4444ZM9.99935 11C10.1834 11 10.3327 10.8507 10.3327 10.6667V9.4444C10.3327 9.35893 10.3061 9.31693 10.2959 9.30507C9.25515 8.0962 7.71688 7.33333 5.99935 7.33333C4.28182 7.33333 2.74356 8.0962 1.70284 9.30507C1.69262 9.31693 1.66602 9.35893 1.66602 9.4444V10.6667C1.66602 10.8507 1.81526 11 1.99935 11H9.99935Z" fill="black"/>
</svg>
