<svg width="20" height="20" viewBox="0 0 20 20" fill="none" xmlns="http://www.w3.org/2000/svg">
<path fill-rule="evenodd" clip-rule="evenodd" d="M12.5 5.5C12.5 6.88071 11.3807 8 10 8C8.6193 8 7.5 6.88071 7.5 5.5C7.5 4.11929 8.6193 3 10 3C11.3807 3 12.5 4.11929 12.5 5.5ZM11 5.5C11 6.05229 10.5523 6.5 10 6.5C9.4477 6.5 9 6.05229 9 5.5C9 4.94772 9.4477 4.5 10 4.5C10.5523 4.5 11 4.94772 11 5.5Z" fill="#F0F0F0"/>
<path fill-rule="evenodd" clip-rule="evenodd" d="M2 0C0.89543 0 0 0.89543 0 2V9C0 10.1046 0.89543 11 2 11H18C19.1046 11 20 10.1046 20 9V2C20 0.89543 19.1046 0 18 0H2ZM18.5 2C18.5 1.72386 18.2761 1.5 18 1.5H2C1.72386 1.5 1.5 1.72386 1.5 2V9C1.5 9.2761 1.72386 9.5 2 9.5H18C18.2761 9.5 18.5 9.2761 18.5 9V2Z" fill="#F0F0F0"/>
<path d="M20 19C20 19.4142 19.6642 19.75 19.25 19.75H0.75C0.33579 19.75 0 19.4142 0 19C0 18.5858 0.33579 18.25 0.75 18.25H19.25C19.6642 18.25 20 18.5858 20 19Z" fill="#F0F0F0"/>
<path d="M20 14.5C20 14.9142 19.6642 15.25 19.25 15.25H0.75C0.33579 15.25 0 14.9142 0 14.5C0 14.0858 0.33579 13.75 0.75 13.75H19.25C19.6642 13.75 20 14.0858 20 14.5Z" fill="#F0F0F0"/>
</svg>
