<svg width="70" height="70" viewBox="0 0 70 70" fill="none" xmlns="http://www.w3.org/2000/svg">
<path d="M34.7397 69.4794C53.9259 69.4794 69.4794 53.9259 69.4794 34.7397C69.4794 15.5535 53.9259 0 34.7397 0C15.5535 0 0 15.5535 0 34.7397C0 53.9259 15.5535 69.4794 34.7397 69.4794Z" fill="#E5E4E2"/>
<g opacity="0.29">
<path d="M34.7414 57.2597C47.1793 57.2597 57.2622 47.1768 57.2622 34.739C57.2622 22.3011 47.1793 12.2183 34.7414 12.2183C22.3036 12.2183 12.2207 22.3011 12.2207 34.739C12.2207 47.1768 22.3036 57.2597 34.7414 57.2597Z" fill="#292A2E"/>
</g>
<path d="M27.3691 42.7811L29.4696 39.5241C30.7647 40.6764 32.4125 41.3549 34.1435 41.4486C36.0002 41.4486 36.8168 40.6779 36.8168 39.1877C36.8168 35.8171 28.1701 35.8785 28.1701 29.9674C28.1701 26.1669 30.8021 23.7466 34.9518 23.7466C36.1308 23.7295 37.2993 23.9692 38.3763 24.4492C39.4532 24.9292 40.4128 25.638 41.1882 26.5261L38.7789 29.2856C38.3241 28.7867 37.7743 28.3838 37.1616 28.1005C36.5489 27.8172 35.8858 27.6593 35.2112 27.636C33.6349 27.636 32.7798 28.272 32.7798 29.7438C32.7798 32.867 41.4265 32.5939 41.4265 38.856C41.4265 42.6134 38.9374 45.338 34.1426 45.338C31.6593 45.2829 29.2694 44.3807 27.3691 42.7811ZM33.1299 20.5381H36.3256V25.256H33.1299V20.5381ZM33.1299 43.3704H36.3256V48.5465H33.1299V43.3704Z" fill="#E5E4E2"/>
</svg>
