<svg width="44" height="22" viewBox="0 0 44 22" fill="none" xmlns="http://www.w3.org/2000/svg">
<path d="M30.3651 2.45581C30.931 1.89401 30.931 0.983149 30.3651 0.421349C29.7992 -0.14045 28.8817 -0.14045 28.3158 0.421349L10.072 18.5333L2.46728 11.077C1.89788 10.5187 0.980407 10.5244 0.418054 11.0897C-0.144299 11.655 -0.138583 12.5658 0.430821 13.1241L9.06016 21.585C9.62706 22.1408 10.5396 22.138 11.103 21.5786L30.3651 2.45581Z" fill="#6E4AEC"/>
<path d="M21.6251 21.5913L18.7124 18.7713L20.7619 16.7367L22.6241 18.5396L40.8743 0.421354C41.4402 -0.140445 42.3577 -0.140445 42.9235 0.421354C43.4894 0.983153 43.4894 1.89401 42.9235 2.45581L23.6615 21.5787C23.1006 22.1355 22.193 22.1411 21.6251 21.5913Z" fill="#6E4AEC"/>
</svg>
