<svg width="50" height="50" viewBox="0 0 50 50" fill="none" xmlns="http://www.w3.org/2000/svg">
<path d="M25 50C38.8071 50 50 38.8071 50 25C50 11.1929 38.8071 0 25 0C11.1929 0 0 11.1929 0 25C0 38.8071 11.1929 50 25 50Z" fill="#C0C0C0"/>
<g opacity="0.29">
<path d="M25.0017 41.2065C33.9524 41.2065 41.2085 33.9505 41.2085 24.9997C41.2085 16.049 33.9524 8.79297 25.0017 8.79297C16.0509 8.79297 8.79492 16.049 8.79492 24.9997C8.79492 33.9505 16.0509 41.2065 25.0017 41.2065Z" fill="white"/>
</g>
<path d="M19.6953 30.7877L21.2069 28.4438C22.1389 29.2731 23.3247 29.7614 24.5704 29.8288C25.9066 29.8288 26.4942 29.2741 26.4942 28.2018C26.4942 25.7761 20.2717 25.8203 20.2717 21.5664C20.2717 18.8315 22.1658 17.0897 25.1521 17.0897C26.0005 17.0774 26.8414 17.25 27.6165 17.5954C28.3915 17.9408 29.082 18.4508 29.6401 19.09L27.9062 21.0758C27.5789 20.7168 27.1832 20.4268 26.7423 20.223C26.3014 20.0191 25.8242 19.9054 25.3387 19.8887C24.2044 19.8887 23.589 20.3464 23.589 21.4055C23.589 23.6531 29.8115 23.4566 29.8115 27.963C29.8115 30.667 28.0203 32.6277 24.5697 32.6277C22.7827 32.588 21.0628 31.9388 19.6953 30.7877ZM23.841 14.7808H26.1407V18.1759H23.841V14.7808ZM23.841 31.2118H26.1407V34.9367H23.841V31.2118Z" fill="#C0C0C0"/>
</svg>
