<svg width="24" height="25" viewBox="0 0 24 25" fill="none" xmlns="http://www.w3.org/2000/svg">
<path d="M10.25 10.6665C10.25 11.3569 9.69036 11.9165 9 11.9165C8.30964 11.9165 7.75 11.3569 7.75 10.6665C7.75 9.97615 8.30964 9.4165 9 9.4165C9.69036 9.4165 10.25 9.97615 10.25 10.6665Z" fill="#F0F0F0"/>
<path d="M15 11.9165C15.6904 11.9165 16.25 11.3569 16.25 10.6665C16.25 9.97615 15.6904 9.4165 15 9.4165C14.3096 9.4165 13.75 9.97615 13.75 10.6665C13.75 11.3569 14.3096 11.9165 15 11.9165Z" fill="#F0F0F0"/>
<path d="M8.53514 14.6665C8.89369 14.4591 9.34732 14.5896 9.63093 14.8915C10.2243 15.5232 11.0665 15.9165 12 15.9165C12.9335 15.9165 13.7757 15.5232 14.3691 14.8915C14.6527 14.5896 15.1063 14.4591 15.4649 14.6665C15.8234 14.8739 15.9501 15.3375 15.6889 15.659C14.8187 16.7303 13.4898 17.4165 12 17.4165C10.5102 17.4165 9.18128 16.7303 8.3111 15.659C8.04995 15.3375 8.1766 14.8739 8.53514 14.6665Z" fill="#F0F0F0"/>
<path fill-rule="evenodd" clip-rule="evenodd" d="M12 22.6665C17.5228 22.6665 22 18.1893 22 12.6665C22 7.14365 17.5228 2.6665 12 2.6665C6.47715 2.6665 2 7.14365 2 12.6665C2 18.1893 6.47715 22.6665 12 22.6665ZM12 21.1665C16.6944 21.1665 20.5 17.3609 20.5 12.6665C20.5 7.97208 16.6944 4.1665 12 4.1665C7.30558 4.1665 3.5 7.97208 3.5 12.6665C3.5 17.3609 7.30558 21.1665 12 21.1665Z" fill="#F0F0F0"/>
</svg>
