<svg width="21" height="22" viewBox="0 0 21 22" fill="none" xmlns="http://www.w3.org/2000/svg">
<path d="M13.6611 4.4993L12.2898 5.87062C11.9969 6.16351 11.9969 6.63839 12.2898 6.93128C12.5827 7.22418 13.0575 7.22418 13.3504 6.93128L16.0021 4.27963C16.1427 4.13898 16.2218 3.94821 16.2218 3.7493C16.2218 3.55039 16.1427 3.35962 16.0021 3.21897L13.3504 0.567324C13.0575 0.274434 12.5827 0.274434 12.2898 0.567324C11.9969 0.860214 11.9969 1.33509 12.2898 1.62798L13.6611 2.9993H8.00782C3.58953 2.9993 0.0078125 6.58102 0.0078125 10.9993C0.0078125 12.7176 0.549523 14.3093 1.47147 15.6131C1.7244 15.9708 2.23483 15.9868 2.54461 15.677C2.82225 15.3994 2.83686 14.9578 2.61712 14.6324C1.91674 13.5952 1.50781 12.345 1.50781 10.9993C1.50781 7.40945 4.41796 4.4993 8.00782 4.4993H13.6611Z" fill="#F0F0F0"/>
<path d="M7.72583 21.4313C8.01872 21.1384 8.01872 20.6636 7.72583 20.3707L6.35451 18.9993H12.0078C16.4261 18.9993 20.0078 15.4176 20.0078 10.9993C20.0078 9.28108 19.4661 7.68932 18.5441 6.38557C18.2912 6.02788 17.7808 6.01188 17.471 6.32165C17.1934 6.59929 17.1787 7.04087 17.3985 7.36627C18.0989 8.40345 18.5078 9.65368 18.5078 10.9993C18.5078 14.5892 15.5976 17.4993 12.0078 17.4993H6.35451L7.72583 16.128C8.01872 15.8351 8.01872 15.3603 7.72583 15.0674C7.43294 14.7745 6.95806 14.7745 6.66517 15.0674L4.01352 17.719C3.87287 17.8597 3.79385 18.0504 3.79385 18.2493C3.79385 18.4483 3.87287 18.639 4.01352 18.7797L6.66517 21.4313C6.95806 21.7242 7.43294 21.7242 7.72583 21.4313Z" fill="#F0F0F0"/>
</svg>
