<svg width="33" height="33" viewBox="0 0 33 33" fill="none" xmlns="http://www.w3.org/2000/svg">
<rect x="0.3125" y="0.5" width="32" height="32" rx="16" fill="#F1EDFE"/>
<path fill-rule="evenodd" clip-rule="evenodd" d="M14.6298 17.1854C15.9594 17.1854 17.0373 16.1075 17.0373 14.7779C17.0373 13.4483 15.9594 12.3704 14.6298 12.3704C13.3002 12.3704 12.2224 13.4483 12.2224 14.7779C12.2224 16.1075 13.3002 17.1854 14.6298 17.1854ZM14.6298 15.7409C15.1617 15.7409 15.5928 15.3098 15.5928 14.7779C15.5928 14.2461 15.1617 13.8149 14.6298 13.8149C14.098 13.8149 13.6669 14.2461 13.6669 14.7779C13.6669 15.3098 14.098 15.7409 14.6298 15.7409Z" fill="black"/>
<path fill-rule="evenodd" clip-rule="evenodd" d="M5 10.926C5 9.86228 5.86229 9 6.92597 9H22.3337C23.3974 9 24.2597 9.86228 24.2597 10.926V18.6298C24.2597 19.6935 23.3974 20.5558 22.3337 20.5558H6.92597C5.86229 20.5558 5 19.6935 5 18.6298V10.926ZM6.44448 10.926C6.44448 10.66 6.66005 10.4445 6.92597 10.4445H22.3337C22.5996 10.4445 22.8152 10.66 22.8152 10.926V18.6298C22.8152 18.8957 22.5996 19.1113 22.3337 19.1113H6.92597C6.66005 19.1113 6.44448 18.8957 6.44448 18.6298V10.926Z" fill="black"/>
<path d="M24.2597 22.7225C25.4563 22.7225 26.4264 21.7524 26.4264 20.5558V13.5742C26.4264 13.1753 26.7498 12.8519 27.1486 12.8519C27.5475 12.8519 27.8709 13.1753 27.8709 13.5742V20.5558C27.8709 22.5502 26.2541 24.167 24.2597 24.167H8.61119C8.21231 24.167 7.88895 23.8436 7.88895 23.4448C7.88895 23.0459 8.21231 22.7225 8.61119 22.7225H24.2597Z" fill="black"/>
</svg>
