<svg width="21" height="21" viewBox="0 0 21 21" fill="none" xmlns="http://www.w3.org/2000/svg">
<path d="M14.9051 1.18121C15.067 0.799701 15.5089 0.61977 15.8798 0.80459C15.9893 0.85915 16.0979 0.91527 16.2056 0.97293C17.8204 1.83769 19.2231 3.0468 20.3157 4.50212C20.5646 4.83363 20.4676 5.30084 20.1215 5.5291C19.776 5.75706 19.313 5.66016 19.0618 5.3311C18.9368 5.16728 18.8072 5.00709 18.6734 4.85069C17.7364 3.75591 16.5881 2.84735 15.2916 2.18819C14.9224 2.00046 14.7432 1.56247 14.9051 1.18121Z" fill="black"/>
<path d="M5.72073 1.18121C5.55879 0.799701 5.11694 0.61977 4.74598 0.80459C2.99382 1.67757 1.47549 2.94978 0.310084 4.50212C0.061214 4.83363 0.158244 5.30084 0.504264 5.5291C0.849834 5.75706 1.31276 5.66016 1.56396 5.3311C2.56437 4.02059 3.85254 2.94152 5.33416 2.18818C5.70336 2.00046 5.88256 1.56247 5.72073 1.18121Z" fill="black"/>
<path d="M9.93786 12.6491C9.70586 12.5152 9.56286 12.2676 9.56286 11.9996V8.74962C9.56286 8.33541 9.89866 7.99962 10.3129 7.99962C10.7271 7.99962 11.0629 8.33541 11.0629 8.74962V11.5666L13.9355 13.2251C14.2942 13.4322 14.4171 13.8909 14.21 14.2496C14.1841 14.2944 14.1543 14.3356 14.1213 14.3729C13.8898 14.6339 13.4994 14.7053 13.1855 14.5241L9.93786 12.6491Z" fill="black"/>
<path fill-rule="evenodd" clip-rule="evenodd" d="M19.3129 11.9996C19.3129 16.9702 15.2835 20.9996 10.3129 20.9996C5.34231 20.9996 1.31287 16.9702 1.31287 11.9996C1.31287 7.02906 5.34231 2.99962 10.3129 2.99962C15.2835 2.99962 19.3129 7.02906 19.3129 11.9996ZM17.8129 11.9996C17.8129 16.1417 14.455 19.4996 10.3129 19.4996C6.17074 19.4996 2.81287 16.1417 2.81287 11.9996C2.81287 7.85749 6.17074 4.49962 10.3129 4.49962C14.455 4.49962 17.8129 7.85749 17.8129 11.9996Z" fill="black"/>
</svg>
