<svg width="33" height="33" viewBox="0 0 33 33" fill="none" xmlns="http://www.w3.org/2000/svg">
<rect x="0.3125" y="0.5" width="32" height="32" rx="16" fill="#F1EDFE"/>
<path d="M19.5 21C20.8807 21 22 19.8807 22 18.5C22 17.1193 20.8807 16 19.5 16C18.1193 16 17 17.1193 17 18.5C17 19.8807 18.1193 21 19.5 21Z" fill="black"/>
<path d="M16 18.5C16 17.685 16.396 16.968 17 16.512C16.5698 16.1812 16.0427 16.0013 15.5 16C14.837 16 14.2011 16.2634 13.7322 16.7322C13.2634 17.2011 13 17.837 13 18.5C13 19.163 13.2634 19.7989 13.7322 20.2678C14.2011 20.7366 14.837 21 15.5 21C16.0427 20.9987 16.5698 20.8188 17 20.488C16.6903 20.2571 16.4387 19.9572 16.2651 19.6121C16.0916 19.2671 16.0008 18.8863 16 18.5Z" fill="black"/>
<path d="M24 9H8C6.897 9 6 9.897 6 11V23C6 24.103 6.897 25 8 25H24C25.103 25 26 24.103 26 23V11C26 9.897 25.103 9 24 9ZM8 23V11H24L24.002 23H8Z" fill="black"/>
</svg>
