<svg width="21" height="18" viewBox="0 0 21 18" fill="none" xmlns="http://www.w3.org/2000/svg">
<path fill-rule="evenodd" clip-rule="evenodd" d="M2.3125 2H4.5625V0.75C4.5625 0.33579 4.89829 0 5.3125 0C5.72671 0 6.0625 0.33579 6.0625 0.75V2H14.5625V0.75C14.5625 0.33579 14.8983 0 15.3125 0C15.7267 0 16.0625 0.33579 16.0625 0.75V2H18.3125C19.4171 2 20.3125 2.89543 20.3125 4V16C20.3125 17.1046 19.4171 18 18.3125 18H2.3125C1.20793 18 0.3125 17.1046 0.3125 16V4C0.3125 2.89543 1.20793 2 2.3125 2ZM18.3125 3.5C18.5886 3.5 18.8125 3.72386 18.8125 4V6H1.8125V4C1.8125 3.72386 2.03636 3.5 2.3125 3.5H18.3125ZM2.3125 16.5C2.03636 16.5 1.8125 16.2761 1.8125 16V7.5H18.8125V16C18.8125 16.2761 18.5886 16.5 18.3125 16.5H2.3125Z" fill="black"/>
</svg>
