<svg width="15" height="14" viewBox="0 0 15 14" fill="none" xmlns="http://www.w3.org/2000/svg">
<path d="M7.94358 0.539959C7.64281 0.184616 7.03093 0.24384 6.83387 0.717624L5.24535 4.53685L1.12218 4.86739C0.53762 4.91426 0.300592 5.64377 0.745968 6.02531L3.88738 8.71626L2.92763 12.7398C2.79156 13.3102 3.41212 13.7611 3.91258 13.4554L7.44259 11.2992L10.9726 13.4554C11.4731 13.7611 12.0936 13.3102 11.9575 12.7398L10.9978 8.71626L14.1392 6.02531C14.1949 5.97758 14.2399 5.92444 14.2749 5.86794C14.5199 5.47206 14.2745 4.9084 13.763 4.86739L9.6398 4.53685L8.05131 0.717624C8.02316 0.649941 7.98657 0.590717 7.94358 0.539959Z" fill="#47B2A9"/>
</svg>
