<svg width="19" height="23" viewBox="0 0 19 23" fill="none" xmlns="http://www.w3.org/2000/svg">
<path fill-rule="evenodd" clip-rule="evenodd" d="M9.3125 13C11.5216 13 13.3125 11.2091 13.3125 9C13.3125 6.79086 11.5216 5 9.3125 5C7.10336 5 5.3125 6.79086 5.3125 9C5.3125 11.2091 7.10336 13 9.3125 13ZM9.3125 11.5C10.6932 11.5 11.8125 10.3807 11.8125 9C11.8125 7.61929 10.6932 6.5 9.3125 6.5C7.9318 6.5 6.8125 7.61929 6.8125 9C6.8125 10.3807 7.9318 11.5 9.3125 11.5Z" fill="#1C133B"/>
<path fill-rule="evenodd" clip-rule="evenodd" d="M18.3125 9C18.3125 13.963 13.0177 19.549 10.5505 21.8825C9.8469 22.5479 8.7781 22.5479 8.0745 21.8825C5.60733 19.549 0.3125 13.963 0.3125 9C0.3125 4.02944 4.34194 0 9.3125 0C14.2831 0 18.3125 4.02944 18.3125 9ZM16.8125 9C16.8125 11.003 15.716 13.3207 14.1319 15.5614C12.5801 17.7563 10.7181 19.6593 9.5197 20.7927C9.4494 20.8592 9.3763 20.8816 9.3125 20.8816C9.2488 20.8816 9.1756 20.8592 9.1053 20.7927C7.9069 19.6593 6.04487 17.7563 4.49314 15.5614C2.90899 13.3207 1.8125 11.003 1.8125 9C1.8125 4.85787 5.17037 1.5 9.3125 1.5C13.4546 1.5 16.8125 4.85787 16.8125 9Z" fill="#1C133B"/>
</svg>
