<svg width="16" height="16" viewBox="0 0 16 16" fill="none" xmlns="http://www.w3.org/2000/svg">
<path fill-rule="evenodd" clip-rule="evenodd" d="M14.8028 14.8992C15.2661 14.5027 15.534 13.9243 15.5368 13.3145V11.0922C15.5368 10.4452 15.115 9.87373 14.4968 9.68296L11.933 8.89176C11.4703 8.74899 10.967 8.84243 10.5863 9.14175L9.56319 9.94644C8.92597 9.50007 8.31862 8.99227 7.74939 8.42312C7.18024 7.8539 6.67244 7.24655 6.22607 6.60933L7.03076 5.58621C7.33009 5.20558 7.42352 4.70225 7.28075 4.23953L6.48958 1.67571C6.29879 1.05745 5.72732 0.635742 5.08029 0.635742H2.85799C2.24821 0.638552 1.66981 0.906454 1.27329 1.36973C0.945579 1.75263 0.760107 2.24111 0.791529 2.74413C0.989597 5.91447 2.29977 9.02797 4.72214 11.4504C7.14455 13.8728 10.2581 15.1829 13.4284 15.381C13.9314 15.4124 14.4199 15.2269 14.8028 14.8992ZM5.35662 5.92547C5.0551 6.30883 5.04025 6.84442 5.32006 7.24389C5.80318 7.93361 6.35237 8.59037 6.96727 9.20525C7.58214 9.82012 8.2389 10.3694 8.92862 10.8525C9.32809 11.1322 9.86369 11.1174 10.2471 10.8159L11.2701 10.0113C11.3653 9.93641 11.4911 9.91304 11.6068 9.94873L14.1706 10.7399C14.3252 10.7876 14.4306 10.9305 14.4306 11.0922V13.3114C14.4287 13.5991 14.3021 13.8718 14.0835 14.0588C13.8928 14.2221 13.6806 14.2885 13.4973 14.277C10.5856 14.0951 7.72889 12.8928 5.50431 10.6682C3.27976 8.44362 2.07744 5.5869 1.89553 2.67516C1.88408 2.49194 1.95046 2.27969 2.11367 2.08899C2.30073 1.87043 2.57341 1.74382 2.86101 1.74189H5.08029C5.24205 1.74189 5.38492 1.84732 5.43262 2.00188L6.2238 4.56571C6.25949 4.68138 6.23613 4.80722 6.16129 4.90238L5.35662 5.92547Z" fill="#307771"/>
</svg>
